<mxfile host="app.diagrams.net" modified="2023-06-08T16:46:19.400Z" agent="Mozilla/5.0 (X11; Linux x86_64) AppleWebKit/537.36 (KHTML, like Gecko) Chrome/114.0.0.0 Safari/537.36" version="21.3.7" etag="btXViWmnz96rLNDVqXUU" type="github">
  <diagram name="Page-1" id="Txa7uv1hDkDG_xIrRgC_">
    <mxGraphModel>
      <root>
        <mxCell id="0" />
        <mxCell id="1" parent="0" />
      </root>
    </mxGraphModel>
  </diagram>
</mxfile>
